<?xml version="1.0" encoding="UTF-8" standalone="no"?>
<!DOCTYPE svg PUBLIC "-//W3C//DTD SVG 1.1//EN"
 "http://www.w3.org/Graphics/SVG/1.1/DTD/svg11.dtd">
<!-- Generated by graphviz version 3.0.0 (20220226.1711)
 -->
<!-- Title: G Pages: 1 -->
<svg width="218pt" height="260pt"
 viewBox="0.00 0.00 218.00 260.00" xmlns="http://www.w3.org/2000/svg" xmlns:xlink="http://www.w3.org/1999/xlink">
<g id="graph0" class="graph" transform="scale(1 1) rotate(0) translate(4 256)">
<title>G</title>
<polygon fill="white" stroke="transparent" points="-4,4 -4,-256 214,-256 214,4 -4,4"/>
<!-- v -->
<g id="node1" class="node">
<title>v</title>
<ellipse fill="none" stroke="black" cx="55" cy="-162" rx="27" ry="18"/>
<text text-anchor="middle" x="55" y="-158.3" font-family="Times,serif" font-size="14.00">v</text>
</g>
<!-- y -->
<g id="node4" class="node">
<title>y</title>
<ellipse fill="none" stroke="black" cx="93" cy="-90" rx="27" ry="18"/>
<text text-anchor="middle" x="93" y="-86.3" font-family="Times,serif" font-size="14.00">y</text>
</g>
<!-- v&#45;&gt;y -->
<g id="edge1" class="edge">
<title>v&#45;&gt;y</title>
<path fill="none" stroke="black" d="M63.81,-144.76C68.42,-136.28 74.16,-125.71 79.32,-116.2"/>
<polygon fill="black" stroke="black" points="82.54,-117.61 84.23,-107.15 76.39,-114.27 82.54,-117.61"/>
</g>
<!-- z -->
<g id="node2" class="node">
<title>z</title>
<ellipse fill="none" stroke="black" cx="165" cy="-90" rx="27" ry="18"/>
<text text-anchor="middle" x="165" y="-86.3" font-family="Times,serif" font-size="14.00">z</text>
</g>
<!-- z&#45;&gt;z -->
<g id="edge2" class="edge">
<title>z&#45;&gt;z</title>
<path fill="none" stroke="black" d="M184.9,-102.43C197.69,-105.68 210,-101.53 210,-90 210,-81.62 203.5,-77.14 195.04,-76.56"/>
<polygon fill="black" stroke="black" points="194.5,-73.1 184.9,-77.57 195.19,-80.07 194.5,-73.1"/>
</g>
<!-- u -->
<g id="node3" class="node">
<title>u</title>
<ellipse fill="none" stroke="black" cx="27" cy="-234" rx="27" ry="18"/>
<text text-anchor="middle" x="27" y="-230.3" font-family="Times,serif" font-size="14.00">u</text>
</g>
<!-- u&#45;&gt;v -->
<g id="edge3" class="edge">
<title>u&#45;&gt;v</title>
<path fill="none" stroke="black" d="M33.64,-216.41C36.91,-208.22 40.94,-198.14 44.62,-188.95"/>
<polygon fill="black" stroke="black" points="47.95,-190.05 48.41,-179.47 41.45,-187.45 47.95,-190.05"/>
</g>
<!-- x -->
<g id="node6" class="node">
<title>x</title>
<ellipse fill="none" stroke="black" cx="38" cy="-18" rx="27" ry="18"/>
<text text-anchor="middle" x="38" y="-14.3" font-family="Times,serif" font-size="14.00">x</text>
</g>
<!-- u&#45;&gt;x -->
<g id="edge4" class="edge">
<title>u&#45;&gt;x</title>
<path fill="none" stroke="black" d="M23.75,-215.89C21.95,-205.54 19.91,-192.06 19,-180 15.44,-132.59 24.85,-77.66 31.66,-45.76"/>
<polygon fill="black" stroke="black" points="35.11,-46.4 33.85,-35.88 28.27,-44.88 35.11,-46.4"/>
</g>
<!-- y&#45;&gt;x -->
<g id="edge5" class="edge">
<title>y&#45;&gt;x</title>
<path fill="none" stroke="black" d="M81.07,-73.81C73.79,-64.55 64.34,-52.52 56.15,-42.09"/>
<polygon fill="black" stroke="black" points="58.84,-39.86 49.91,-34.16 53.34,-44.18 58.84,-39.86"/>
</g>
<!-- w -->
<g id="node5" class="node">
<title>w</title>
<ellipse fill="none" stroke="black" cx="146" cy="-162" rx="27" ry="18"/>
<text text-anchor="middle" x="146" y="-158.3" font-family="Times,serif" font-size="14.00">w</text>
</g>
<!-- w&#45;&gt;z -->
<g id="edge7" class="edge">
<title>w&#45;&gt;z</title>
<path fill="none" stroke="black" d="M150.6,-144.05C152.75,-136.14 155.35,-126.54 157.76,-117.69"/>
<polygon fill="black" stroke="black" points="161.2,-118.36 160.44,-107.79 154.45,-116.52 161.2,-118.36"/>
</g>
<!-- w&#45;&gt;y -->
<g id="edge6" class="edge">
<title>w&#45;&gt;y</title>
<path fill="none" stroke="black" d="M134.24,-145.46C127.38,-136.4 118.58,-124.79 110.88,-114.61"/>
<polygon fill="black" stroke="black" points="113.56,-112.35 104.73,-106.49 107.98,-116.58 113.56,-112.35"/>
</g>
<!-- x&#45;&gt;v -->
<g id="edge8" class="edge">
<title>x&#45;&gt;v</title>
<path fill="none" stroke="black" d="M40.06,-36.19C42.96,-60.42 48.28,-104.89 51.73,-133.68"/>
<polygon fill="black" stroke="black" points="48.29,-134.36 52.95,-143.87 55.24,-133.53 48.29,-134.36"/>
</g>
</g>
</svg>
